<?xml version="1.0" encoding="UTF-8"?>
<svg id="Layer_1" xmlns="http://www.w3.org/2000/svg" version="1.1" viewBox="0 0 7000 7000">
  <!-- Generator: Adobe Illustrator 29.5.0, SVG Export Plug-In . SVG Version: 2.1.0 Build 137)  -->
  <defs>
    <style>
      .st0 {
        fill: #002c3c;
      }
    </style>
  </defs>
  <g id="SaAg7G">
    <path class="st0" d="M3734.6,2302.5c7,4.3-2.9,19.7,29-2,10.7,26.8,26.3,16.6,46.9,22.1,30.3,8,32.6,6.2,60.9,11.1,25.7,4.5,62.1,38.9,91.8,44.5,10.2,1.9,30.6-12.2,50.1-13.9,20.8-1.8,40.6,5.5,60.5,10,9.5,12.8-37.3,29.9-46,36.8-20.7,16.4-54,48.2-73.8,67.4s-17.1,13.2-15.2,24.7c33.5,8.9,49.8-20.1,79.8-18.3l-6.1,30.6c10.8,3.2,13.4-8.1,21.3-9.4,24.3-4.1,59.4-12.3,82.8-24.6,30.5-16,56.9-71.5,92.3-67.3-13.9,19.4-42.7,39.3-42.9,64.5,17.5,3,16.1-32.6,25.7-1.7,8.9,1.9,31.1,6.5,41.9,10.8,11.4,4.5,31.4,21.4,38.8,20.7,15.6-1.4,38.4-30.5,51.5-34.5,15.1-4.6,40-2,56.9-7.5v24.7c39.9-1.4,47-8.2,61.4,30.6-16.9-5.2-26,18.9-27.8,18.9-8.3,0-17.1-9.7-25.7-11.4-26-5.1-77.5,17.8-90.7,41.7l3.1-18.3c-15.5-5.3-14.6,14.4-19.6,17.6-3.6,2.3-12.9-5-17.5-2.4-4.7,2.6-38.2,88.3-41.3,99.8-1.5,5.6-6.6,27.5,4.7,26.2l43-73.6c6.7,24.4-12.1,40.4-16.8,59.9-17.2,71.3-25.4,152-4.9,222.8,3.7,12.8,23.5,46.3,38.1,47.5,50.9,4.2,68.3-92,62-129.2-4-23.2-26-44.6-27.5-57.4-1.1-9.8,8-78.2,11.2-90.8,5.7-22.9,21.6-44.6,33.2-65l-3,42.9,9.2-12.3,9.1,12.3-.3-51.5,24.8-12.9c-11-11.4-10.8-19.6-6-33.8,37.4,15.1,84.4,11.4,110.5,46.1l-12.5,6.1c9.4,18.3,20.9,45,17.6,66s-54.7,50.3-8.1,72c12.8-25.1,21.6-38,49.2-48.3,28.7,45.1,49.4,86.7,20.5,136.6-6.5,11.2-20,18.2-25.2,30.2-3.8,8.9-5.2,41.1-10.8,53.5,19.8-7.6,38.6,18.3,41,18.5,15.3,1.8,73.7-9.6,85.4-18,8-5.8,26.4-33.6,38.2-43.3,44.1-36.4,151.7-80,105.6-150.4,43.3-32,97.6-2.8,144-34.3s26.6-26.4,27.2-28.3c2.3-7.4-5.5-37.2-2.4-48.1.6-2.1,17.8-37.6,19-39.4,62.8-94.7,164.5-58.6,245.8-98.1,18.7-9.1,12.2-22.1,24.6-31.2,13.6-10,27.7,15.1,37.1-28.9,9.1-42.5-1.7-79.1,2.8-121.1,1.5-13.7,19-85.6,27-89.6,13.9-6.9,8.9,34.5,41,17.9,6.6-3.4,8.1-16.6,20.3-15.8,41,2.9,50.6,98.4,60.1,128.1,11.6,36.3,66.6,29.9,65.9,78.5l18.3-6.2-33.7,49.1-9.1-12.2c-1.3,5.8,3.8,17.3-3.3,16.7-18.7-1.6-21.2,20.4-39.7,7.9l6.1,18.3c-22,5.9-16.7-10.7-30.6-18.3l-12.1,40.3c13.1,4.5,13.8,6.4,11.9,21-11.4,1.9,0-15.4-15-12-28.6,6.4-67.6,95.1-65.3,125.7s10.6,20.9,10.6,24.5c0,5.3-16.6,20.8-9.7,33.5,23.9-2.2,34.2,33.4,54.9,46.3-21,25.1-14.7-8.1-27.4-3l-15.5,30.6-15.3-12.2c-15.5,6.7-2.2,21.8-3.7,23.9-10.6,15.7-141.1,40.2-146.8,86.5,4.6,3.9,52.8-27.7,64.6-30.5,17.1-4,2.3,10.2,3.8,11.5l11.4,6.7-98,43.3c22.1,56.4,4.4,104-12.5,159.4l-6.1-24.6c-21.3,9.9-31.8-9.6-49-18.4-2.7,41.7,53.6,59.6,52.6,95.2-.4,13.9-12,33.6-28.1,27.6l18.4,15.2c-19.8,21.5-25.8,48.3-24.6,76.8-2.1,2.7-8.1,5.1-10.4-5.8-5.4-26.1-7.2-46.9,16.6-61.7-31.2,6.2-16.1-27.4-33.8-42.9l-15.4,9.4-27.6-46.4c-36.1,3.3,17.8,57.4,9.3,67.5s-12.6-11.6-16.2-12.4c-11.5-2.4-26.7,1.6-39,.1,3.4,38.3,53.5,15.5,73.5,39.8l-12.1,33.8,18.4,12.3-18.3,3c10.6,4.4,21.6,29.4,26.2,32.2,6.4,3.8,16.1,0,25.8,7.8,21.2,16.9,5.3,49.4,33.9,58.3l-27.2-3.4-6.9,12.9-21.1-6.4,6.1,18.3-21.5-12.2-9.2,30.7c28.9-4.4,99-42.2,84.5,13.8-11,42.3-42.2,18.5-47.7,23.1v36.8s36.8-6.1,36.8-6.1c2.1,76.7-104.5,33.9-110.6,122.7l-12.1-12.2c-5.9,22-32.9,29.4-45.8,49.4-8.1,12.5-11.5,35.9-18.7,42.9-13.7,13.3-29.5-6.8-15.4,30.5-24.1-5.8-15.2,12.1-24.9,21.3-2.7,2.6-19.5,13.5-28,20.8-12.8,10.8-31.7,9.2-26.9,31.8l-12.2-6.3c19.6,43.4-24.4,42.7-30.8,49.3-2,2.1,5.4,14,4.5,20.5-1.5,10.6-15.2,44.9-15,54.8.1,6.1,32.6,107.2,36.7,116.4,8.7,19.3,32.2,31.5,47.5,44.6l-18.4,6.1c56.5,48.6,125.6,198.2,123.1,270.6-.5,13.7-10.3,19.8-12.4,30.6s5.5,39.1-6.3,48.9l-61.5,15.2c-4.6-24.9,43.1-3.8,36.8-30.6-32.2,9.9-32.5-15.1-43-21.6-17.5-10.8-37.9,9-61.4-24.6-12.5-17.9-14.5-30-12.4-52.2l-15.5.6-2.9-25.1-6.3,15.4c-1.4,19.2-44.3-48.5-46-52.5-6.1-14.8,11-27.9,9.3-42.7l-27.7,12.4c-18.4-48.2,25.5-80.5-21-120.3-8.7-7.5-20.9-8.8-28-15-25.3-21.9-47.5-52.8-83.5-58.7l-42.5,46.3c-21.3-20.9-20.9-4.9-42.8,0,3.1-20.5-23.6-31.2-33.8-49.1l-6.1,12.2c-17.8-34.4-48.3-1.4-55.9-24.8h-11.3c-20.6,3.7-19.3,24.5-25.9,25.3s-13.8-5.6-18.7-4.9c-13.6,1.9-33.2,12.3-51,10.7-3.2-3.5,3.7-43.7-18.4-37,2,56.9-68.1,31.7-101.8,55.2-1.9,24.7-4,28.4,15.8,43-30.6,1-14.1,45.4-40,37.1l-6-12.4-13,31.4c-13,9.9-49.5-15.5-54.3,11.5l-46.4-12.2,3.8-18.5c-32.6-25.2-73.5-11.5-109.8-13.6-17.3-1-27.8-12.1-55.8-10.3-75.3,5-68.6,39.3-114.7,69.7-13.2,8.7-29,10.3-42.4,19.1-35.8,23.4-58.4,59.3-104.7,45.7l3.6,24.8-22.1,5.9c24,48.1-21.6,40.6-30.6,58.4s16.9,5.1,18.8,12.5c-7,44.9,9.2,83.1,18,125.6-2.7,2.7-32.1-5.9-38.1-7.8-40.9-12.6-62.6-23.8-103.9-32.2-4.8-1-33.5-20.1-36.6-24.2-5-6.5.3-14.8-2.9-21.2-17.1-34.1-14.7-46.3-25.7-72.7-7-16.8-44.4-54.1-55.8-73.1-27.4-45.6-43.3-115.2-99.7-139.8-69.9-30.6-104,.1-129.2,63.3-16.1,11.6-86.2-42.5-97.5-57.6-24-32.2-25.7-72.9-40-101.2s-22.4-15-30.9-24.4c-27.1-30.1-50.8-64.1-76.5-95.4l-141.3-15.4c-3.8,11,9.8,42.7-9.2,43.2-55.4,1.6-124.5-20.4-181.5-21.4-97.4-41.9-189.8-101.1-281.9-153.8l12.1-21.5-190.3-18.5,12.2-24.4c-19.2-.8-11.4-36.7-23.3-59.7-2.3-4.5-30.9-42.2-33.3-43.6-6.8-3.8-20.3.9-22.8-1.6-2.2-2.2,1.6-17.7-3-24.5-5.6-8.1-26.3-5.9-36.1-11.7-8.9-5.3-13.2-28.2-26.4-36.6s-73-20.5-79.6-31.3c-4.8-16.7,12.2-43.6,9.9-57.6-.7-4.2-10.9-3.1-12.2-7.8-8.9-32.7-22-58.4-36-92.5-7.7-18.8-24.9-21.4-14.6-48.5,4.2-11,17.4-7.1,13.7-23.8.8-12.6-15.1-13.2-19.1-19.7-3.7-6-11-46.2-10.2-53.4,1-8.3,11.8-17.4,10.2-24.7-1.8-8.3-23-13-27.6-22.1-4.3-8.6,6.1-23.4,2.3-38.3-2.8-11.1-18.7-23.8-22-39.9-7.9-37.7,7.8-70.6,5.1-103-2.1-24.7-22.4-44.6-19.3-73.7,1.8-17.4,16.5-8,23.8-16.7s17.1-56.3,18.2-64.7c5.4-39.7-6.8-87.2,4.4-124.6,4-13.3,23.4-33.2,31.1-48.7,36.9-74.9,62.7-153.9,89.9-232.7l29.7,5.4c6.2-18.5-28.4-17.8-31-28.9,15.8-62.1-3.3-124.6,6.5-186,4.4-4.8,46.7,33.8,55.8,39.3,15.8,9.5,41.3,4.9,42.5,28.2l15.2-12.2,9.3,18.3,18.4-21.4-11.3-3.9,5-17.7-12.2-2.9,24.5-3.1c2.6-20-.8-26-18.4-33.8l20.8-9.2c390,102.5,794,168.8,1197.8,190.5,61.5,3.3,419.2-3.6,437.8,7.8Z"/>
  </g>
</svg>